FWD
version=1
nRows=15
nColumns=23
inDegrees=yes
endheader
time	platform_rz	pelvis_rx	pelvis_ry	pelvis_rz	pelvis_tx	pelvis_ty	pelvis_tz	LHip_rz	LKnee_rz	RHip_rz	RKnee_rz	platform_rz_u	pelvis_rx_u	pelvis_ry_u	pelvis_rz_u	pelvis_tx_u	pelvis_ty_u	pelvis_tz_u	LHip_rz_u	LKnee_rz_u	RHip_rz_u	RKnee_rz_u
      0.75000000	    -10.00000000	     -0.00000000	      0.00000000	     -0.00000000	      0.23755787	      0.57747853	      0.00000000	      0.12828107	    -72.63433090	     66.84192433	   -100.00754970	      0.00000000	     -0.00000000	      0.00000000	     -0.00000000	      0.57619473	     -1.06590611	      0.00000000	      9.76923666	   -174.96063415	     -1.12294237	      0.07427826
      0.75100000	    -10.00000000	     -0.00000000	      0.00000000	     -0.00000000	      0.23813478	      0.57640774	      0.00000000	      0.13803910	    -72.80928012	     66.84080308	   -100.00747464	      0.00000000	     -0.00000000	      0.00000000	     -0.00000000	      0.57762135	     -1.07567300	      0.00000000	      9.74683277	   -174.93783378	     -1.11866040	      0.07396454
      0.75200000	    -10.00000000	     -0.00000000	      0.00000000	     -0.00000000	      0.23871311	      0.57532718	      0.00000000	      0.14777472	    -72.98420653	     66.83968632	   -100.00740033	      0.00000000	     -0.00000000	      0.00000000	     -0.00000000	      0.57904775	     -1.08543887	      0.00000000	      9.72440731	   -174.91501476	     -1.11441649	      0.07371314
      0.75300000	    -10.00000000	     -0.00000000	      0.00000000	     -0.00000000	      0.23929288	      0.57423686	      0.00000000	      0.15748790	    -73.15911013	     66.83857402	   -100.00732675	      0.00000000	     -0.00000000	      0.00000000	     -0.00000000	      0.58047386	     -1.09520492	      0.00000000	      9.70196275	   -174.89219202	     -1.10971064	      0.07248028
      0.75400000	    -10.00000000	     -0.00000000	      0.00000000	     -0.00000000	      0.23987406	      0.57313678	      0.00000000	      0.16717864	    -73.33399090	     66.83746620	   -100.00725393	      0.00000000	     -0.00000000	      0.00000000	     -0.00000000	      0.58189987	     -1.10496780	      0.00000000	      9.67949301	   -174.86932472	     -1.10593905	      0.07318035
      0.75500000	    -10.00000000	     -0.00000000	      0.00000000	     -0.00000000	      0.24045668	      0.57202693	      0.00000000	      0.17684688	    -73.50884880	     66.83636282	   -100.00718180	      0.00000000	     -0.00000000	      0.00000000	     -0.00000000	      0.58332553	     -1.11473216	      0.00000000	      9.65700706	   -174.84647032	     -1.10115608	      0.07175193
      0.75600000	    -10.00000000	     -0.00000000	      0.00000000	     -0.00000000	      0.24103902	      0.57090883	      0.00000000	      0.18654071	    -73.68371158	     66.83518109	   -100.00714835	      0.00000000	     -0.00000000	      0.00000000	     -0.00000000	      0.57275195	     -1.11364584	      0.00000000	      9.97453115	   -175.01877177	     -1.71633867	     -0.12650430
      0.75700000	    -10.00000000	     -0.00000000	      0.00000000	     -0.00000000	      0.24154919	      0.56985067	      0.00000000	      0.19829670	    -73.85971490	     66.82988686	   -100.00759301	      0.00000000	     -0.00000000	      0.00000000	     -0.00000000	      0.41460302	     -0.96752103	      0.00000000	     14.47061667	   -177.46720862	    -10.77743665	     -0.71498772
      0.75800000	    -10.00000000	     -0.00000000	      0.00000000	     -0.00000000	      0.24183601	      0.56903857	      0.00000000	      0.21638413	    -74.03878344	     66.81261111	   -100.00828567	      0.00000000	     -0.00000000	      0.00000000	     -0.00000000	      0.20079763	     -0.63698917	      0.00000000	     20.50396803	   -179.36464539	    -19.69430079	     -0.51091646
      0.75900000	    -10.00000000	     -0.00000000	      0.00000000	     -0.00000000	      0.24200851	      0.56859738	      0.00000000	      0.23764683	    -74.21670968	     66.79567813	   -100.00876898	      0.00000000	     -0.00000000	     -0.00000000	     -0.00000000	      0.14419349	     -0.24301871	      0.00000000	     22.02047397	   -176.46137377	    -14.13701440	     -0.43508689
      0.76000000	    -10.00000000	     -0.00000000	      0.00000000	     -0.00000000	      0.24212641	      0.56853910	      0.00000000	      0.26037114	    -74.39179879	     66.78412340	   -100.00912970	      0.00000000	     -0.00000000	      0.00000000	     -0.00000000	      0.09350063	      0.11325039	      0.00000000	     23.37772430	   -173.81082148	     -9.16339190	     -0.28482193
      0.76100000	    -10.00000000	     -0.00000000	      0.00000000	     -0.00000000	      0.24220004	      0.56879196	      0.00000000	      0.28428222	    -74.56456016	     66.77690163	   -100.00934410	      0.00000000	     -0.00000000	      0.00000000	     -0.00000000	      0.05611389	      0.37584594	      0.00000000	     24.38249814	   -171.83180197	     -5.51120343	     -0.14922062
      0.76200000	    -10.00000000	     -0.00000000	      0.00000000	     -0.00000000	      0.24224338	      0.56925972	      0.00000000	      0.30901002	    -74.73567715	     66.77263896	   -100.00944441	      0.00000000	     -0.00000000	     -0.00000000	     -0.00000000	      0.03334197	      0.54588954	      0.00000000	     24.99829389	   -170.47998451	     -3.28398243	     -0.05633850
      0.76300000	    -10.00000000	     -0.00000000	      0.00000000	     -0.00000000	      0.24227100	      0.56985988	      0.00000000	      0.33416435	    -74.90566903	     66.76991142	   -100.00946678	      0.00000000	     -0.00000000	     -0.00000000	     -0.00000000	      0.02328621	      0.64425516	      0.00000000	     25.27373474	   -169.57859847	     -2.30965144	      0.00940012
      0.76400000	    -10.00000000	     -0.00000000	      0.00000000	     -0.00000000	      0.24229191	      0.57053098	      0.00000000	      0.35950739	    -75.07497194	     66.76783005	   -100.00943399	      0.00000000	     -0.00000000	     -0.00000000	     -0.00000000	      0.01923899	      0.69073385	      0.00000000	     25.39491303	   -169.08814836	     -1.92021353	      0.05555537
